<?xml version="1.0" encoding="UTF-8" standalone="no"?>
<!DOCTYPE svg PUBLIC "-//W3C//DTD SVG 1.1//EN" "http://www.w3.org/Graphics/SVG/1.1/DTD/svg11.dtd">
<svg width="100%" height="100%" viewBox="0 0 9225 1892" version="1.1" xmlns="http://www.w3.org/2000/svg" xmlns:xlink="http://www.w3.org/1999/xlink" xml:space="preserve" xmlns:serif="http://www.serif.com/" style="fill-rule:evenodd;clip-rule:evenodd;stroke-linejoin:round;stroke-miterlimit:2;">
    <g transform="matrix(4.16667,0,0,4.16667,0,0)">
        <path d="M1999.08,451.867C1881.73,451.867 1786.54,356.197 1786.54,238.213L1786.54,2.591L2211.62,2.591L2211.63,238.213C2211.63,356.197 2116.43,451.867 1999.08,451.867Z" style="fill:white;"/>
        <path d="M2213.76,0.457L2213.76,238.213C2213.76,357.365 2117.62,454 1999.08,454C1880.54,454 1784.4,357.365 1784.4,238.213L1784.4,0.457L2213.76,0.457ZM2205.76,238.213C2205.76,352.984 2113.16,446 1999.08,446C1885,446 1792.4,352.984 1792.4,238.213L1792.4,8.457L2205.76,8.457L2205.76,238.213Z" style="fill:rgb(35,31,32);"/>
        <path d="M2007.12,430.576C2005.22,433.947 2002.44,436.75 1999.08,438.662C1995.74,436.76 1992.96,433.975 1991.07,430.623C1994.2,430.148 1997.05,428.826 1999.12,426.326C2001.18,428.742 2004,430.074 2007.12,430.576ZM1961.65,409.242C1957.88,408.482 1954.37,406.703 1951.53,404.111C1952.31,400.346 1954.1,396.846 1956.7,394.014C1958.11,396.828 1960.23,399.113 1963.22,400.312C1961.51,403.043 1961.14,406.137 1961.65,409.242ZM1967.95,359.478C1967.49,355.639 1968.1,351.734 1969.69,348.213C1973.52,347.787 1977.4,348.41 1980.9,350.01C1978.64,352.236 1977.12,354.98 1976.92,358.225C1973.83,357.477 1970.77,358.053 1967.95,359.478ZM2017.22,350.033C2020.73,348.416 2024.63,347.785 2028.47,348.215C2030.06,351.719 2030.66,355.602 2030.22,359.424C2027.41,357.965 2024.33,357.365 2021.18,358.176C2020.94,355.008 2019.44,352.273 2017.22,350.033ZM2041.42,393.973C2044.05,396.812 2045.85,400.328 2046.63,404.113C2043.79,406.705 2040.28,408.482 2036.51,409.244C2037.03,406.119 2036.65,403.002 2034.91,400.26C2037.84,399.049 2039.98,396.783 2041.42,393.973ZM1999.08,401.887C1991.77,401.887 1985.85,395.967 1985.85,388.662C1985.85,381.359 1991.77,375.439 1999.08,375.439C2006.38,375.439 2012.3,381.359 2012.3,388.662C2012.3,395.967 2006.38,401.887 1999.08,401.887ZM1803.07,19.124L1965.22,19.124C1959.19,25.752 1953.32,32.519 1947.93,39.706C1927.5,66.988 1929.51,105.055 1908.87,131.738C1890.83,155.066 1860.26,161.174 1843.37,182.722C1824.23,207.151 1823,240.73 1804.96,265.719C1803.72,256.731 1803.07,247.547 1803.07,238.213L1803.07,19.124ZM1993.75,95.707L1993.75,238.213C1993.75,310.084 1955.5,372.928 1898.41,407.367C1869.34,389.826 1845.15,364.92 1828.41,335.205C1838.78,324.398 1848.93,313.439 1856.85,300.609C1872.95,274.492 1875.35,241.434 1894.43,217.104C1912.1,194.577 1943.28,188.332 1959.88,166.177C1975.72,145.05 1980.58,118.315 1993.75,95.707Z" style="fill:rgb(0,166,80);fill-rule:nonzero;"/>
        <path d="M2004.41,19.124L2195.09,19.124L2195.09,238.213C2195.09,310.084 2156.84,372.928 2099.75,407.367C2042.67,372.928 2004.41,310.084 2004.41,238.213L2004.41,19.124ZM2187.21,145.707C2187.21,158.491 2175.66,164.019 2175.66,173.564C2175.66,184.859 2186.82,190.311 2186.82,201.211C2186.82,212.478 2177.96,214.386 2172.22,212.438C2172.22,212.438 2175.81,211.571 2175.81,207.18C2175.81,193.829 2147.21,194.532 2147.21,173.564C2147.21,162.602 2154.99,153.869 2154.99,147.402C2154.99,144.11 2152.52,139.478 2148.28,138.015C2154.14,133.863 2163.96,136.409 2166.49,142.76C2168.52,137.47 2170.38,129.604 2168,121.955C2181.44,127.106 2187.19,135.859 2187.21,145.645L2187.21,145.707ZM2078.11,65.976C2081.11,70.983 2088.75,65.97 2088.75,65.97C2088.75,65.97 2079.5,57.204 2078.11,65.976ZM2125.51,344.312C2125.51,337.705 2132,331.992 2132.65,331.439C2132.97,331.49 2133.3,331.518 2133.64,331.518C2137.19,331.518 2140.06,328.641 2140.06,325.092C2140.06,324.121 2139.85,323.201 2139.46,322.377C2157.08,290.936 2152.42,286.371 2125.11,264.064C2117.64,257.96 2115.34,240.102 2115.34,223.693C2104.48,198.332 2075.15,201.276 2064.09,176.381L2076.91,177.077C2083.49,177.433 2088.1,173.456 2090.29,170.186C2092.34,167.131 2090.32,162.962 2087.02,164.083C2085.53,168.191 2081.51,171.452 2077.07,171.212L2045.22,169.494C2038.89,175.795 2040.25,184.907 2051.33,189.667L2051.33,194.422L2058.92,194.422C2061.63,203.016 2061.73,210.712 2059.21,215.902C2053.16,215.902 2046.32,208.667 2046.32,208.667C2046.34,207.915 2046.44,207.29 2046.44,206.643C2046.44,203.095 2043.56,200.219 2040.01,200.219C2039.51,200.219 2039.02,200.276 2038.56,200.384C2034.95,194.653 2035.52,182.392 2026.19,168.753L2033.26,160.155L2059.13,151.458C2059.87,121.132 2094.72,114.117 2100.08,91.968C2107.54,91.968 2112.19,89.76 2115.8,82.676C2116.74,80.842 2116.3,76.528 2111.63,77.457C2109.03,84.804 2105.58,86.101 2100.76,86.101C2088.2,86.101 2078.07,83.99 2076.39,89.582C2073.55,99.019 2060.46,93.099 2060.46,93.099L2063.66,90.767C2063.92,90.799 2064.19,90.816 2064.47,90.816C2066.89,90.816 2068.86,89.539 2068.86,87.964C2068.86,86.39 2066.89,85.113 2064.47,85.113C2062.05,85.112 2060.08,86.389 2060.08,87.964C2060.08,88.061 2060.09,88.158 2060.11,88.252L2057.1,90.434C2053.23,90.434 2052.56,87.401 2052.45,85.961C2053.99,85.963 2055.13,84.692 2055.13,83.124C2055.13,81.557 2053.99,80.286 2052.57,80.286C2052.63,79.127 2053.28,76.737 2056.06,74.534L2078.39,56.809C2081.63,54.239 2088.08,50.786 2090.95,49.299C2090.6,44.439 2092.44,38.026 2092.44,33.493C2092.44,33.493 2099.01,36.307 2101.7,42.689C2103.68,47.413 2102.42,50.346 2101.55,52.66C2102.76,54.565 2107.83,54.583 2108.43,49.698C2108.66,47.776 2108.63,45.51 2107.89,42.884C2116.58,43.829 2128.82,46.809 2147.64,44.909C2143.83,49.324 2138.93,52.516 2133.76,54.821C2143.13,57.037 2154.66,61.652 2160.42,71.246C2155.91,73.542 2150.97,75.044 2146.07,76C2155.06,83.83 2158.58,95.552 2166.28,100.289C2156.3,103.057 2148.07,102.276 2141.6,100.081C2144.73,106.478 2149.58,113.933 2156.22,117.337C2147.17,121.409 2138.36,123.733 2131.56,125.053C2133.69,128.616 2136.82,133.008 2140.64,135.905C2133.61,136.168 2127.96,138.127 2124.68,139.583C2124.09,147.797 2121.83,164.844 2142.65,186.822C2170.4,207.803 2177.32,223.698 2155.45,251.902C2155.45,266.197 2157.84,271.945 2165.24,286.543C2164.61,287.969 2161.57,294.832 2158.54,303.228C2155.22,312.43 2152.73,322.535 2152.73,331.418C2152.73,331.418 2148.03,331.393 2148.03,336.402L2148.03,344C2139.4,346.691 2130.63,346.795 2125.51,344.312ZM2017.52,159.189C2013.52,155.23 2013.48,146.732 2013.51,145.215C2014.08,144.919 2014.61,144.534 2015.08,144.058C2017.59,141.549 2017.59,137.481 2015.08,134.972C2014.7,134.592 2014.29,134.269 2013.85,134.004C2017.47,123.323 2024.52,117.775 2027.38,102.619L2038.43,102.619L2064.7,123.23C2060.02,128.511 2056.14,134.691 2054.34,142.555L2040.35,116.526C2031.37,116.526 2025.87,123.953 2030.52,135.038L2027.14,138.433L2032.34,143.94C2028.44,151.652 2023.24,157.023 2017.52,159.189ZM2058.71,279.791L2095.93,279.791C2095.93,264.453 2084.54,254.387 2084.54,236.443C2084.54,224.705 2089.15,217.342 2101.39,213.807C2104.45,216.585 2107.21,220.122 2109.47,224.955C2109.58,240.668 2112.2,251.455 2115.95,259.258C2115.95,259.258 2107.5,265.697 2107.5,289.379C2107.5,289.379 2073.92,287.84 2069.89,292.221L2064.6,292.221L2064.6,299.803C2056.33,302.525 2048.63,302.617 2043.12,300.078C2043.12,293.342 2050.36,287.213 2050.36,287.213C2051.11,287.24 2051.73,287.336 2052.38,287.336C2055.93,287.336 2058.81,284.461 2058.81,280.912C2058.81,280.529 2058.77,280.154 2058.71,279.791ZM1975.39,421.266C1966.7,414.953 1963.45,403.996 1971.81,399.768C1972.37,398.293 1971.81,396.57 1970.49,395.709C1961.24,397.201 1957.43,386.424 1960.75,376.205C1964.07,365.992 1973.49,359.514 1980.09,366.156C1981.67,366.236 1983.13,365.172 1983.54,363.648C1979.27,355.312 1988.34,348.357 1999.09,348.357C2009.82,348.359 2018.9,355.312 2014.62,363.648C2015.03,365.172 2016.49,366.236 2018.07,366.156C2024.68,359.514 2034.09,365.994 2037.41,376.213C2040.73,386.426 2036.92,397.201 2027.67,395.711C2026.35,396.57 2025.79,398.293 2026.36,399.768C2034.71,403.998 2031.46,414.955 2022.77,421.27C2014.08,427.582 2002.65,427.291 2001.21,418.033C1999.99,417.041 1998.18,417.041 1996.95,418.033C1995.51,427.291 1984.08,427.58 1975.39,421.266ZM2019.76,388.662C2019.76,400.09 2010.5,409.353 1999.08,409.353C1987.65,409.353 1978.39,400.09 1978.39,388.662C1978.39,377.236 1987.65,367.973 1999.08,367.973C2010.5,367.973 2019.76,377.236 2019.76,388.662Z" style="fill:rgb(237,28,36);"/>
        <path d="M4.4,13.759L20.901,13.759L40.702,72.463L40.902,72.463L60.104,13.759L76.904,13.759L76.904,87.764L64.804,87.764L64.804,32.56L64.603,32.56C63.503,37.661 61.903,42.461 60.204,47.661L45.803,87.764L34.702,87.764L20.401,47.661C18.601,42.361 17.501,39.161 15.901,32.06L15.701,32.06L15.701,87.764L4.4,87.764L4.4,13.759Z" style="fill:rgb(35,31,32);fill-rule:nonzero;"/>
        <path d="M92.559,34.661L104.96,34.661L104.96,87.764L92.559,87.764L92.559,34.661ZM92.459,14.759L105.06,14.759L105.06,25.46L92.459,25.46L92.459,14.759Z" style="fill:rgb(35,31,32);fill-rule:nonzero;"/>
        <path d="M118.968,34.661L131.369,34.661L131.369,41.861C134.769,38.261 141.169,33.66 150.77,33.66C160.07,33.66 166.071,39.161 166.071,49.661L166.071,87.764L153.67,87.764L153.67,52.762C153.67,46.861 151.17,44.161 145.77,44.161C140.369,44.161 135.869,46.961 131.369,51.061L131.369,87.764L118.968,87.764L118.968,34.661Z" style="fill:rgb(35,31,32);fill-rule:nonzero;"/>
        <path d="M179.828,34.661L192.229,34.661L192.229,87.764L179.828,87.764L179.828,34.661ZM179.728,14.759L192.329,14.759L192.329,25.46L179.728,25.46L179.728,14.759Z" style="fill:rgb(35,31,32);fill-rule:nonzero;"/>
        <path d="M202.066,80.463L208.767,72.963C212.767,76.363 218.667,79.263 225.468,79.263C232.068,79.263 236.068,77.563 236.068,73.163C236.068,68.862 230.668,67.562 224.268,66.062C215.167,63.962 204.266,61.562 204.266,49.261C204.266,39.961 212.267,33.66 223.968,33.66C234.068,33.66 240.269,36.56 245.769,41.161L239.869,49.161C235.968,45.961 229.668,43.361 224.868,43.361C218.067,43.361 215.867,45.761 215.867,48.761C215.867,53.061 221.167,54.362 227.468,55.762C236.568,57.762 247.669,60.062 247.669,72.463C247.669,83.664 237.568,88.864 225.468,88.864C215.667,88.864 206.867,85.364 202.066,80.463Z" style="fill:rgb(35,31,32);fill-rule:nonzero;"/>
        <path d="M263.416,73.863L263.416,44.461L254.215,44.461L254.215,34.661L263.416,34.661L263.416,16.159L275.717,16.159L275.717,34.661L289.417,34.661L289.417,44.461L275.717,44.461L275.717,70.763C275.717,76.463 277.417,78.763 283.518,78.763C285.317,78.763 287.618,78.463 288.818,78.063L288.818,87.764C287.518,88.063 282.917,88.464 279.817,88.464C266.316,88.464 263.416,83.463 263.416,73.863Z" style="fill:rgb(35,31,32);fill-rule:nonzero;"/>
        <path d="M332.898,56.061C332.198,47.961 328.198,43.661 320.797,43.661C314.797,43.661 309.296,47.061 308.096,56.061L332.898,56.061ZM295.596,61.262C295.596,41.061 309.896,33.66 320.897,33.66C332.798,33.66 344.199,40.761 344.199,62.362L344.199,65.262L307.896,65.262C308.396,74.863 314.297,79.063 322.097,79.063C328.998,79.063 332.998,76.763 336.998,72.863L343.499,79.263C337.998,85.364 330.698,88.864 321.197,88.864C307.896,88.864 295.596,80.763 295.596,61.262Z" style="fill:rgb(35,31,32);fill-rule:nonzero;"/>
        <path d="M355.495,34.661L367.796,34.661L367.796,43.361L367.996,43.361C371.296,38.06 376.997,33.66 387.097,33.66L387.897,33.66L387.497,44.961C386.897,44.861 384.897,44.761 384.197,44.761C376.296,44.761 371.296,48.461 367.796,54.162L367.796,87.764L355.495,87.764L355.495,34.661Z" style="fill:rgb(35,31,32);fill-rule:nonzero;"/>
        <path d="M397.054,34.661L409.455,34.661L409.455,87.764L397.054,87.764L397.054,34.661ZM396.954,14.759L409.555,14.759L409.555,25.46L396.954,25.46L396.954,14.759Z" style="fill:rgb(35,31,32);fill-rule:nonzero;"/>
        <path d="M423.042,72.763L423.042,34.661L435.443,34.661L435.443,69.863C435.443,75.763 437.943,78.463 443.344,78.463C448.744,78.463 453.245,75.663 457.745,71.562L457.745,34.661L470.146,34.661L470.146,87.764L457.745,87.764L457.745,80.563C454.345,84.164 447.944,88.764 438.344,88.764C429.043,88.764 423.042,83.263 423.042,72.763Z" style="fill:rgb(35,31,32);fill-rule:nonzero;"/>
        <path d="M484.032,34.661L496.333,34.661L496.333,41.961C500.433,37.46 506.434,33.66 514.534,33.66C523.435,33.66 526.935,37.161 529.035,42.361C533.235,37.761 539.536,33.66 547.636,33.66C558.437,33.66 563.137,40.161 563.137,49.661L563.137,87.764L550.836,87.764L550.836,52.762C550.836,46.861 549.136,44.161 543.336,44.161C538.335,44.161 534.335,46.961 529.735,51.061L529.735,87.764L517.434,87.764L517.434,52.762C517.434,46.861 515.734,44.161 509.934,44.161C505.034,44.161 500.933,46.961 496.333,51.061L496.333,87.764L484.032,87.764L484.032,34.661Z" style="fill:rgb(35,31,32);fill-rule:nonzero;"/>
        <path d="M611.131,44.461L601.931,44.461L601.931,34.661L611.131,34.661L611.131,29.26C611.131,20.359 614.831,13.459 628.332,13.459C630.632,13.459 634.732,13.859 635.633,13.959L635.633,23.46C634.833,23.26 632.833,23.06 631.432,23.06C627.032,23.06 623.432,24.26 623.432,29.96L623.432,34.661L635.033,34.661L635.033,44.461L623.432,44.461L623.432,87.764L611.131,87.764L611.131,44.461Z" style="fill:rgb(35,31,32);fill-rule:nonzero;"/>
        <path d="M671.532,17.259L682.833,17.259L682.833,29.36L671.532,29.36L671.532,17.259ZM651.831,17.259L663.031,17.259L663.031,29.36L651.831,29.36L651.831,17.259ZM643.73,72.763L643.73,34.661L656.131,34.661L656.131,69.863C656.131,75.763 658.631,78.463 664.031,78.463C669.432,78.463 673.932,75.663 678.432,71.562L678.432,34.661L690.833,34.661L690.833,87.764L678.432,87.764L678.432,80.563C675.032,84.164 668.632,88.764 659.031,88.764C649.73,88.764 643.73,83.263 643.73,72.763Z" style="fill:rgb(35,31,32);fill-rule:nonzero;"/>
        <path d="M704.72,34.661L717.021,34.661L717.021,43.361L717.221,43.361C720.521,38.06 726.222,33.66 736.322,33.66L737.122,33.66L736.722,44.961C736.122,44.861 734.122,44.761 733.422,44.761C725.521,44.761 720.521,48.461 717.021,54.162L717.021,87.764L704.72,87.764L704.72,34.661Z" style="fill:rgb(35,31,32);fill-rule:nonzero;"/>
        <path d="M4.4,133.759L16.901,133.759L16.901,168.161L46.002,133.759L60.803,133.759L35.602,162.26L63.904,207.763L49.603,207.763L27.401,171.861L16.901,183.462L16.901,207.763L4.4,207.763L4.4,133.759Z" style="fill:rgb(35,31,32);fill-rule:nonzero;"/>
        <path d="M70.609,192.762L70.609,154.66L83.01,154.66L83.01,189.862C83.01,195.763 85.51,198.462 90.911,198.462C96.311,198.462 100.812,195.663 105.312,191.562L105.312,154.66L117.713,154.66L117.713,207.763L105.312,207.763L105.312,200.562C101.912,204.163 95.511,208.763 85.911,208.763C76.61,208.763 70.609,203.263 70.609,192.762Z" style="fill:rgb(35,31,32);fill-rule:nonzero;"/>
        <rect x="131.82" y="133.759" width="12.401" height="74.004" style="fill:rgb(35,31,32);fill-rule:nonzero;"/>
        <path d="M162.509,193.862L162.509,164.46L153.308,164.46L153.308,154.66L162.509,154.66L162.509,136.159L174.81,136.159L174.81,154.66L188.51,154.66L188.51,164.46L174.81,164.46L174.81,190.762C174.81,196.462 176.51,198.763 182.61,198.763C184.41,198.763 186.71,198.462 187.911,198.062L187.911,207.763C186.61,208.063 182.01,208.463 178.91,208.463C165.409,208.463 162.509,203.463 162.509,193.862Z" style="fill:rgb(35,31,32);fill-rule:nonzero;"/>
        <path d="M197.749,192.762L197.749,154.66L210.149,154.66L210.149,189.862C210.149,195.763 212.649,198.462 218.05,198.462C223.45,198.462 227.951,195.663 232.451,191.562L232.451,154.66L244.852,154.66L244.852,207.763L232.451,207.763L232.451,200.562C229.051,204.163 222.65,208.763 213.05,208.763C203.749,208.763 197.749,203.263 197.749,192.762Z" style="fill:rgb(35,31,32);fill-rule:nonzero;"/>
        <path d="M258.738,154.66L271.039,154.66L271.039,163.36L271.239,163.36C274.539,158.06 280.24,153.66 290.34,153.66L291.14,153.66L290.74,164.96C290.14,164.86 288.14,164.761 287.44,164.761C279.54,164.761 274.539,168.461 271.039,174.161L271.039,207.763L258.738,207.763L258.738,154.66Z" style="fill:rgb(35,31,32);fill-rule:nonzero;"/>
        <path d="M329.436,192.762L329.436,154.66L341.837,154.66L341.837,189.862C341.837,195.763 344.337,198.462 349.737,198.462C355.138,198.462 359.638,195.663 364.138,191.562L364.138,154.66L376.539,154.66L376.539,207.763L364.138,207.763L364.138,200.562C360.738,204.163 354.338,208.763 344.737,208.763C335.437,208.763 329.436,203.263 329.436,192.762Z" style="fill:rgb(35,31,32);fill-rule:nonzero;"/>
        <path d="M390.426,154.66L402.827,154.66L402.827,161.86C406.227,158.26 412.627,153.66 422.228,153.66C431.528,153.66 437.529,159.16 437.529,169.661L437.529,207.763L425.128,207.763L425.128,172.761C425.128,166.861 422.628,164.161 417.228,164.161C411.827,164.161 407.327,166.961 402.827,171.061L402.827,207.763L390.426,207.763L390.426,154.66Z" style="fill:rgb(35,31,32);fill-rule:nonzero;"/>
        <path d="M486.508,191.762L486.508,170.461C483.208,166.161 478.408,163.86 474.007,163.86C464.707,163.86 460.906,169.861 460.906,181.662C460.906,192.862 465.707,198.462 473.607,198.462C478.708,198.462 483.608,195.262 486.508,191.762ZM448.605,181.361C448.605,162.96 457.706,153.66 471.307,153.66C477.007,153.66 482.608,155.96 486.508,160.36L486.508,133.759L498.809,133.759L498.809,194.762C498.809,201.163 499.209,205.063 500.409,207.763L487.708,207.763C487.008,206.263 486.508,203.263 486.508,200.562C482.608,205.063 477.507,208.563 469.607,208.563C457.506,208.563 448.605,199.763 448.605,181.361Z" style="fill:rgb(35,31,32);fill-rule:nonzero;"/>
        <path d="M538.704,133.759L551.305,133.759L560.705,172.061C562.205,177.961 563.605,183.462 564.605,189.262L564.806,189.262C565.806,183.561 567.105,178.061 568.605,172.161L577.506,133.759L589.507,133.759L598.708,172.361C600.308,178.662 601.508,183.061 602.608,189.262L602.808,189.262C603.908,182.862 605.008,178.961 606.408,172.661L615.608,133.759L627.309,133.759L607.808,207.763L596.907,207.763L583.606,151.06L583.407,151.06L569.406,207.763L558.405,207.763L538.704,133.759Z" style="fill:rgb(35,31,32);fill-rule:nonzero;"/>
        <path d="M637.493,154.66L649.894,154.66L649.894,207.763L637.493,207.763L637.493,154.66ZM637.393,134.759L649.994,134.759L649.994,145.459L637.393,145.459L637.393,134.759Z" style="fill:rgb(35,31,32);fill-rule:nonzero;"/>
        <path d="M659.731,200.463L666.432,192.962C670.432,196.362 676.332,199.263 683.133,199.263C689.733,199.263 693.733,197.562 693.733,193.162C693.733,188.862 688.333,187.562 681.933,186.062C672.832,183.962 661.931,181.561 661.931,169.261C661.931,159.96 669.932,153.66 681.633,153.66C691.733,153.66 697.934,156.56 703.434,161.16L697.534,169.161C693.633,165.96 687.333,163.36 682.533,163.36C675.732,163.36 673.532,165.761 673.532,168.761C673.532,173.061 678.833,174.361 685.133,175.761C694.233,177.761 705.334,180.061 705.334,192.462C705.334,203.663 695.233,208.863 683.133,208.863C673.332,208.863 664.532,205.363 659.731,200.463Z" style="fill:rgb(35,31,32);fill-rule:nonzero;"/>
        <path d="M712.661,200.463L719.361,192.962C723.361,196.362 729.261,199.263 736.062,199.263C742.662,199.263 746.663,197.562 746.663,193.162C746.663,188.862 741.262,187.562 734.862,186.062C725.761,183.962 714.86,181.561 714.86,169.261C714.86,159.96 722.861,153.66 734.562,153.66C744.663,153.66 750.863,156.56 756.363,161.16L750.463,169.161C746.563,165.96 740.262,163.36 735.462,163.36C728.662,163.36 726.461,165.761 726.461,168.761C726.461,173.061 731.762,174.361 738.062,175.761C747.163,177.761 758.263,180.061 758.263,192.462C758.263,203.663 748.163,208.863 736.062,208.863C726.261,208.863 717.461,205.363 712.661,200.463Z" style="fill:rgb(35,31,32);fill-rule:nonzero;"/>
        <path d="M803.672,176.061C802.972,167.961 798.972,163.661 791.571,163.661C785.571,163.661 780.07,167.061 778.87,176.061L803.672,176.061ZM766.37,181.262C766.37,161.061 780.67,153.66 791.671,153.66C803.572,153.66 814.973,160.76 814.973,182.362L814.973,185.262L778.67,185.262C779.17,194.862 785.071,199.062 792.871,199.062C799.771,199.062 803.772,196.763 807.772,192.862L814.272,199.263C808.772,205.363 801.472,208.863 791.971,208.863C778.67,208.863 766.37,200.763 766.37,181.262Z" style="fill:rgb(35,31,32);fill-rule:nonzero;"/>
        <path d="M826.269,154.66L838.67,154.66L838.67,161.86C842.07,158.26 848.47,153.66 858.071,153.66C867.372,153.66 873.372,159.16 873.372,169.661L873.372,207.763L860.971,207.763L860.971,172.761C860.971,166.861 858.471,164.161 853.071,164.161C847.67,164.161 843.17,166.961 838.67,171.061L838.67,207.763L826.269,207.763L826.269,154.66Z" style="fill:rgb(35,31,32);fill-rule:nonzero;"/>
        <path d="M882.769,200.463L889.469,192.962C893.47,196.362 899.37,199.263 906.17,199.263C912.771,199.263 916.771,197.562 916.771,193.162C916.771,188.862 911.371,187.562 904.97,186.062C895.87,183.962 884.969,181.561 884.969,169.261C884.969,159.96 892.969,153.66 904.67,153.66C914.771,153.66 920.971,156.56 926.472,161.16L920.571,169.161C916.671,165.96 910.371,163.36 905.57,163.36C898.77,163.36 896.57,165.761 896.57,168.761C896.57,173.061 901.87,174.361 908.17,175.761C917.271,177.761 928.372,180.061 928.372,192.462C928.372,203.663 918.271,208.863 906.17,208.863C896.37,208.863 887.569,205.363 882.769,200.463Z" style="fill:rgb(35,31,32);fill-rule:nonzero;"/>
        <path d="M936.479,181.262C936.479,160.96 950.179,153.66 961.98,153.66C975.181,153.66 980.781,160.96 983.981,169.161L973.581,172.861C971.48,166.861 967.68,163.96 961.78,163.96C954.779,163.96 948.879,168.561 948.879,181.262C948.879,192.562 953.479,198.763 961.58,198.763C967.18,198.763 971.081,197.062 973.98,189.562L984.181,193.262C980.381,201.763 974.081,208.863 961.28,208.863C948.979,208.863 936.479,200.663 936.479,181.262Z" style="fill:rgb(35,31,32);fill-rule:nonzero;"/>
        <path d="M994.068,133.759L1006.47,133.759L1006.47,161.86C1009.87,158.26 1016.27,153.66 1025.87,153.66C1035.17,153.66 1041.17,159.16 1041.17,169.661L1041.17,207.763L1028.77,207.763L1028.77,172.761C1028.77,166.861 1026.27,164.161 1020.87,164.161C1015.47,164.161 1010.97,166.961 1006.47,171.061L1006.47,207.763L994.068,207.763L994.068,133.759Z" style="fill:rgb(35,31,32);fill-rule:nonzero;"/>
        <path d="M1085.88,192.962L1085.88,181.262C1071.18,183.262 1063.38,186.862 1063.38,192.662C1063.38,196.862 1066.28,199.062 1070.78,199.062C1077.08,199.062 1081.98,196.663 1085.88,192.962ZM1051.28,194.962C1051.28,183.462 1061.08,175.761 1085.88,172.961L1085.88,171.361C1085.88,166.061 1083.08,163.761 1077.18,163.761C1069.78,163.761 1063.78,167.361 1059.28,170.961L1053.28,163.26C1058.98,158.06 1067.88,153.66 1078.88,153.66C1093.08,153.66 1097.98,160.46 1097.98,172.861L1097.98,194.762C1097.98,201.163 1098.38,205.063 1099.48,207.763L1087.08,207.763C1086.38,205.563 1085.88,203.963 1085.88,200.963C1080.48,206.463 1074.18,208.563 1066.28,208.563C1057.68,208.563 1051.28,203.763 1051.28,194.962Z" style="fill:rgb(35,31,32);fill-rule:nonzero;"/>
        <path d="M1115.75,164.46L1106.55,164.46L1106.55,154.66L1115.75,154.66L1115.75,149.26C1115.75,140.359 1119.45,133.458 1132.95,133.458C1135.25,133.458 1139.35,133.859 1140.25,133.958L1140.25,143.459C1139.45,143.259 1137.45,143.059 1136.05,143.059C1131.65,143.059 1128.05,144.259 1128.05,149.959L1128.05,154.66L1139.65,154.66L1139.65,164.46L1128.05,164.46L1128.05,207.763L1115.75,207.763L1115.75,164.46Z" style="fill:rgb(35,31,32);fill-rule:nonzero;"/>
        <path d="M1155.57,193.862L1155.57,164.46L1146.37,164.46L1146.37,154.66L1155.57,154.66L1155.57,136.159L1167.87,136.159L1167.87,154.66L1181.57,154.66L1181.57,164.46L1167.87,164.46L1167.87,190.762C1167.87,196.462 1169.57,198.763 1175.67,198.763C1177.47,198.763 1179.77,198.462 1180.97,198.062L1180.97,207.763C1179.67,208.063 1175.07,208.463 1171.97,208.463C1158.47,208.463 1155.57,203.463 1155.57,193.862Z" style="fill:rgb(35,31,32);fill-rule:nonzero;"/>
        <path d="M37.902,311.762L37.902,290.461C34.602,286.16 29.802,283.86 25.401,283.86C16.101,283.86 12.3,289.861 12.3,301.662C12.3,312.862 17.101,318.463 25.002,318.463C30.102,318.463 35.002,315.262 37.902,311.762ZM0,301.361C0,282.961 9.1,273.66 22.701,273.66C28.401,273.66 34.002,275.96 37.902,280.36L37.902,253.759L50.203,253.759L50.203,314.762C50.203,321.162 50.603,325.062 51.803,327.764L39.102,327.764C38.402,326.264 37.902,323.263 37.902,320.562C34.002,325.062 28.901,328.563 21.001,328.563C8.9,328.563 0,319.763 0,301.361Z" style="fill:rgb(35,31,32);fill-rule:nonzero;"/>
        <path d="M98.502,296.061C97.801,287.961 93.801,283.66 86.4,283.66C80.4,283.66 74.9,287.061 73.7,296.061L98.502,296.061ZM61.199,301.262C61.199,281.061 75.5,273.66 86.501,273.66C98.401,273.66 109.803,280.76 109.803,302.361L109.803,305.262L73.5,305.262C74,314.862 79.9,319.062 87.701,319.062C94.601,319.062 98.602,316.763 102.602,312.862L109.103,319.263C103.602,325.363 96.301,328.863 86.801,328.863C73.5,328.863 61.199,320.763 61.199,301.262Z" style="fill:rgb(35,31,32);fill-rule:nonzero;"/>
        <path d="M117.499,320.463L124.199,312.963C128.199,316.362 134.1,319.263 140.9,319.263C147.5,319.263 151.501,317.562 151.501,313.162C151.501,308.861 146.101,307.562 139.7,306.062C130.6,303.962 119.699,301.561 119.699,289.261C119.699,279.961 127.699,273.66 139.4,273.66C149.501,273.66 155.701,276.561 161.202,281.16L155.301,289.16C151.401,285.961 145.101,283.36 140.3,283.36C133.5,283.36 131.3,285.761 131.3,288.761C131.3,293.061 136.6,294.361 142.9,295.762C152.001,297.762 163.102,300.061 163.102,312.463C163.102,323.663 153.001,328.863 140.9,328.863C131.1,328.863 122.299,325.363 117.499,320.463Z" style="fill:rgb(35,31,32);fill-rule:nonzero;"/>
        <path d="M205.397,253.759L217.898,253.759L217.898,316.362L252,316.362L252,327.764L205.397,327.764L205.397,253.759Z" style="fill:rgb(35,31,32);fill-rule:nonzero;"/>
        <path d="M294.818,312.963L294.818,301.262C280.117,303.262 272.317,306.861 272.317,312.662C272.317,316.862 275.217,319.062 279.717,319.062C286.018,319.062 290.918,316.662 294.818,312.963ZM260.216,314.963C260.216,303.462 270.017,295.762 294.818,292.961L294.818,291.361C294.818,286.061 292.018,283.761 286.118,283.761C278.717,283.761 272.717,287.361 268.216,290.961L262.216,283.26C267.917,278.061 276.817,273.66 287.818,273.66C302.019,273.66 306.919,280.461 306.919,292.861L306.919,314.762C306.919,321.162 307.319,325.062 308.419,327.764L296.018,327.764C295.318,325.562 294.818,323.963 294.818,320.963C289.418,326.463 283.117,328.563 275.217,328.563C266.616,328.563 260.216,323.763 260.216,314.963Z" style="fill:rgb(35,31,32);fill-rule:nonzero;"/>
        <path d="M320.435,274.66L332.835,274.66L332.835,281.86C336.235,278.26 342.636,273.66 352.236,273.66C361.537,273.66 367.538,279.16 367.538,289.66L367.538,327.764L355.137,327.764L355.137,292.762C355.137,286.861 352.637,284.16 347.236,284.16C341.836,284.16 337.335,286.961 332.835,291.061L332.835,327.764L320.435,327.764L320.435,274.66Z" style="fill:rgb(35,31,32);fill-rule:nonzero;"/>
        <path d="M416.517,311.762L416.517,290.461C413.217,286.16 408.417,283.86 404.016,283.86C394.715,283.86 390.915,289.861 390.915,301.662C390.915,312.862 395.715,318.463 403.616,318.463C408.716,318.463 413.617,315.262 416.517,311.762ZM378.614,301.361C378.614,282.961 387.715,273.66 401.316,273.66C407.016,273.66 412.617,275.96 416.517,280.36L416.517,253.759L428.817,253.759L428.817,314.762C428.817,321.162 429.218,325.062 430.417,327.764L417.717,327.764C417.017,326.264 416.517,323.263 416.517,320.562C412.617,325.062 407.516,328.563 399.616,328.563C387.515,328.563 378.614,319.763 378.614,301.361Z" style="fill:rgb(35,31,32);fill-rule:nonzero;"/>
        <path d="M477.116,296.061C476.416,287.961 472.416,283.66 465.015,283.66C459.015,283.66 453.514,287.061 452.314,296.061L477.116,296.061ZM439.813,301.262C439.813,281.061 454.114,273.66 465.115,273.66C477.016,273.66 488.417,280.76 488.417,302.361L488.417,305.262L452.114,305.262C452.614,314.862 458.515,319.062 466.315,319.062C473.215,319.062 477.216,316.763 481.216,312.862L487.716,319.263C482.216,325.363 474.916,328.863 465.415,328.863C452.114,328.863 439.813,320.763 439.813,301.262Z" style="fill:rgb(35,31,32);fill-rule:nonzero;"/>
        <path d="M496.113,320.463L502.813,312.963C506.813,316.362 512.714,319.263 519.515,319.263C526.115,319.263 530.115,317.562 530.115,313.162C530.115,308.861 524.715,307.562 518.314,306.062C509.214,303.962 498.313,301.561 498.313,289.261C498.313,279.961 506.313,273.66 518.015,273.66C528.115,273.66 534.315,276.561 539.816,281.16L533.916,289.16C530.015,285.961 523.715,283.36 518.914,283.36C512.114,283.36 509.914,285.761 509.914,288.761C509.914,293.061 515.214,294.361 521.515,295.762C530.615,297.762 541.716,300.061 541.716,312.463C541.716,323.663 531.615,328.863 519.515,328.863C509.714,328.863 500.914,325.363 496.113,320.463Z" style="fill:rgb(35,31,32);fill-rule:nonzero;"/>
        <path d="M584.012,253.759L596.712,253.759L631.715,306.562L631.915,306.562L631.915,253.759L643.516,253.759L643.516,327.764L632.115,327.764L595.813,273.859L595.612,273.859L595.612,327.764L584.012,327.764L584.012,253.759Z" style="fill:rgb(35,31,32);fill-rule:nonzero;"/>
        <path d="M695.522,301.262C695.522,291.361 691.322,284.16 682.021,284.16C673.121,284.16 668.52,290.561 668.52,301.262C668.52,311.362 672.621,318.562 682.021,318.562C690.921,318.562 695.522,312.162 695.522,301.262ZM656.12,301.262C656.12,281.66 669.021,273.66 682.021,273.66C694.922,273.66 707.923,281.66 707.923,301.262C707.923,320.662 694.922,328.863 682.021,328.863C669.12,328.863 656.12,320.662 656.12,301.262Z" style="fill:rgb(35,31,32);fill-rule:nonzero;"/>
        <path d="M719.049,274.66L731.35,274.66L731.35,283.36L731.55,283.36C734.85,278.061 740.55,273.66 750.651,273.66L751.451,273.66L751.051,284.961C750.451,284.86 748.451,284.761 747.75,284.761C739.85,284.761 734.85,288.461 731.35,294.161L731.35,327.764L719.049,327.764L719.049,274.66Z" style="fill:rgb(35,31,32);fill-rule:nonzero;"/>
        <path d="M795.27,311.762L795.27,290.461C791.97,286.16 787.169,283.86 782.769,283.86C773.468,283.86 769.668,289.861 769.668,301.662C769.668,312.862 774.468,318.463 782.369,318.463C787.469,318.463 792.37,315.262 795.27,311.762ZM757.367,301.361C757.367,282.961 766.468,273.66 780.069,273.66C785.769,273.66 791.37,275.96 795.27,280.36L795.27,253.759L807.57,253.759L807.57,314.762C807.57,321.162 807.971,325.062 809.17,327.764L796.47,327.764C795.77,326.264 795.27,323.263 795.27,320.562C791.37,325.062 786.269,328.563 778.369,328.563C766.268,328.563 757.367,319.763 757.367,301.361Z" style="fill:rgb(35,31,32);fill-rule:nonzero;"/>
        <path d="M821.677,274.66L833.978,274.66L833.978,283.36L834.178,283.36C837.478,278.061 843.178,273.66 853.279,273.66L854.079,273.66L853.679,284.961C853.079,284.86 851.079,284.761 850.378,284.761C842.478,284.761 837.478,288.461 833.978,294.161L833.978,327.764L821.677,327.764L821.677,274.66Z" style="fill:rgb(35,31,32);fill-rule:nonzero;"/>
        <path d="M863.005,253.759L875.406,253.759L875.406,281.86C878.806,278.26 885.207,273.66 894.807,273.66C904.108,273.66 910.108,279.16 910.108,289.66L910.108,327.764L897.708,327.764L897.708,292.762C897.708,286.861 895.208,284.16 889.807,284.16C884.407,284.16 879.906,286.961 875.406,291.061L875.406,327.764L863.005,327.764L863.005,253.759Z" style="fill:rgb(35,31,32);fill-rule:nonzero;"/>
        <path d="M958.268,296.061C957.567,287.961 953.567,283.66 946.167,283.66C940.167,283.66 934.666,287.061 933.466,296.061L958.268,296.061ZM920.965,301.262C920.965,281.061 935.266,273.66 946.267,273.66C958.167,273.66 969.568,280.76 969.568,302.361L969.568,305.262L933.266,305.262C933.766,314.862 939.667,319.062 947.467,319.062C954.367,319.062 958.368,316.763 962.368,312.862L968.868,319.263C963.368,325.363 956.067,328.863 946.567,328.863C933.266,328.863 920.965,320.763 920.965,301.262Z" style="fill:rgb(35,31,32);fill-rule:nonzero;"/>
        <path d="M980.975,274.66L993.375,274.66L993.375,327.764L980.975,327.764L980.975,274.66ZM980.875,254.759L993.476,254.759L993.476,265.459L980.875,265.459L980.875,254.759Z" style="fill:rgb(35,31,32);fill-rule:nonzero;"/>
        <path d="M1007.38,274.66L1019.78,274.66L1019.78,281.86C1023.18,278.26 1029.58,273.66 1039.19,273.66C1048.49,273.66 1054.49,279.16 1054.49,289.66L1054.49,327.764L1042.09,327.764L1042.09,292.762C1042.09,286.861 1039.59,284.16 1034.19,284.16C1028.78,284.16 1024.28,286.961 1019.78,291.061L1019.78,327.764L1007.38,327.764L1007.38,274.66Z" style="fill:rgb(35,31,32);fill-rule:nonzero;"/>
        <rect x="1066.7" y="291.961" width="24.7" height="8.801" style="fill:rgb(35,31,32);fill-rule:nonzero;"/>
        <path d="M1095.88,253.759L1108.48,253.759L1117.88,292.061C1119.38,297.961 1120.78,303.462 1121.78,309.262L1121.98,309.262C1122.98,303.561 1124.28,298.061 1125.78,292.161L1134.69,253.759L1146.69,253.759L1155.89,292.361C1157.49,298.662 1158.69,303.061 1159.79,309.262L1159.99,309.262C1161.09,302.861 1162.19,298.961 1163.59,292.661L1172.79,253.759L1184.49,253.759L1164.99,327.764L1154.09,327.764L1140.79,271.06L1140.59,271.06L1126.58,327.764L1115.58,327.764L1095.88,253.759Z" style="fill:rgb(35,31,32);fill-rule:nonzero;"/>
        <path d="M1224.63,296.061C1223.93,287.961 1219.93,283.66 1212.53,283.66C1206.53,283.66 1201.03,287.061 1199.83,296.061L1224.63,296.061ZM1187.33,301.262C1187.33,281.061 1201.63,273.66 1212.63,273.66C1224.53,273.66 1235.93,280.76 1235.93,302.361L1235.93,305.262L1199.63,305.262C1200.13,314.862 1206.03,319.062 1213.83,319.062C1220.73,319.062 1224.73,316.763 1228.73,312.862L1235.23,319.263C1229.73,325.363 1222.43,328.863 1212.93,328.863C1199.63,328.863 1187.33,320.763 1187.33,301.262Z" style="fill:rgb(35,31,32);fill-rule:nonzero;"/>
        <path d="M1243.63,320.463L1250.33,312.963C1254.33,316.362 1260.23,319.263 1267.03,319.263C1273.63,319.263 1277.63,317.562 1277.63,313.162C1277.63,308.861 1272.23,307.562 1265.83,306.062C1256.73,303.962 1245.83,301.561 1245.83,289.261C1245.83,279.961 1253.83,273.66 1265.53,273.66C1275.63,273.66 1281.83,276.561 1287.33,281.16L1281.43,289.16C1277.53,285.961 1271.23,283.36 1266.43,283.36C1259.63,283.36 1257.43,285.761 1257.43,288.761C1257.43,293.061 1262.73,294.361 1269.03,295.762C1278.13,297.762 1289.23,300.061 1289.23,312.463C1289.23,323.663 1279.13,328.863 1267.03,328.863C1257.23,328.863 1248.43,325.363 1243.63,320.463Z" style="fill:rgb(35,31,32);fill-rule:nonzero;"/>
        <path d="M1304.98,313.862L1304.98,284.461L1295.78,284.461L1295.78,274.66L1304.98,274.66L1304.98,256.158L1317.28,256.158L1317.28,274.66L1330.98,274.66L1330.98,284.461L1317.28,284.461L1317.28,310.762C1317.28,316.463 1318.98,318.763 1325.08,318.763C1326.88,318.763 1329.18,318.463 1330.38,318.062L1330.38,327.764C1329.08,328.062 1324.48,328.463 1321.38,328.463C1307.88,328.463 1304.98,323.463 1304.98,313.862Z" style="fill:rgb(35,31,32);fill-rule:nonzero;"/>
        <path d="M1347.62,284.461L1338.42,284.461L1338.42,274.66L1347.62,274.66L1347.62,269.26C1347.62,260.36 1351.32,253.459 1364.82,253.459C1367.12,253.459 1371.22,253.859 1372.12,253.959L1372.12,263.459C1371.32,263.26 1369.32,263.059 1367.92,263.059C1363.52,263.059 1359.92,264.26 1359.92,269.959L1359.92,274.66L1371.52,274.66L1371.52,284.461L1359.92,284.461L1359.92,327.764L1347.62,327.764L1347.62,284.461Z" style="fill:rgb(35,31,32);fill-rule:nonzero;"/>
        <path d="M1412.46,312.963L1412.46,301.262C1397.76,303.262 1389.96,306.861 1389.96,312.662C1389.96,316.862 1392.86,319.062 1397.36,319.062C1403.66,319.062 1408.56,316.662 1412.46,312.963ZM1377.86,314.963C1377.86,303.462 1387.66,295.762 1412.46,292.961L1412.46,291.361C1412.46,286.061 1409.66,283.761 1403.76,283.761C1396.36,283.761 1390.36,287.361 1385.86,290.961L1379.86,283.26C1385.56,278.061 1394.46,273.66 1405.46,273.66C1419.66,273.66 1424.56,280.461 1424.56,292.861L1424.56,314.762C1424.56,321.162 1424.96,325.062 1426.06,327.764L1413.66,327.764C1412.96,325.562 1412.46,323.963 1412.46,320.963C1407.06,326.463 1400.76,328.563 1392.86,328.563C1384.26,328.563 1377.86,323.763 1377.86,314.963Z" style="fill:rgb(35,31,32);fill-rule:nonzero;"/>
        <rect x="1438.39" y="253.759" width="12.4" height="74.005" style="fill:rgb(35,31,32);fill-rule:nonzero;"/>
        <path d="M1499.45,296.061C1498.75,287.961 1494.75,283.66 1487.35,283.66C1481.35,283.66 1475.85,287.061 1474.65,296.061L1499.45,296.061ZM1462.15,301.262C1462.15,281.061 1476.45,273.66 1487.45,273.66C1499.35,273.66 1510.75,280.76 1510.75,302.361L1510.75,305.262L1474.45,305.262C1474.95,314.862 1480.85,319.062 1488.65,319.062C1495.55,319.062 1499.55,316.763 1503.55,312.862L1510.05,319.263C1504.55,325.363 1497.25,328.863 1487.75,328.863C1474.45,328.863 1462.15,320.763 1462.15,301.262Z" style="fill:rgb(35,31,32);fill-rule:nonzero;"/>
        <path d="M1522.05,274.66L1534.45,274.66L1534.45,281.86C1537.85,278.26 1544.25,273.66 1553.85,273.66C1563.15,273.66 1569.15,279.16 1569.15,289.66L1569.15,327.764L1556.75,327.764L1556.75,292.762C1556.75,286.861 1554.25,284.16 1548.85,284.16C1543.45,284.16 1538.95,286.961 1534.45,291.061L1534.45,327.764L1522.05,327.764L1522.05,274.66Z" style="fill:rgb(35,31,32);fill-rule:nonzero;"/>
    </g>
</svg>
